<?xml version="1.0" encoding="UTF-8"?>
<svg version="1.1" xmlns="http://www.w3.org/2000/svg" width="107" height="120">
<path d="M0 0 C0.87398438 0.69222656 1.74796875 1.38445313 2.6484375 2.09765625 C3.62683594 3.00837891 3.62683594 3.00837891 4.625 3.9375 C4.625 4.5975 4.625 5.2575 4.625 5.9375 C5.285 5.9375 5.945 5.9375 6.625 5.9375 C6.625 6.5975 6.625 7.2575 6.625 7.9375 C7.285 7.9375 7.945 7.9375 8.625 7.9375 C9.57232816 9.57769601 10.50727716 11.2250427 11.4375 12.875 C11.95957031 13.79152344 12.48164062 14.70804688 13.01953125 15.65234375 C17.02386068 23.8461176 18.10272916 30.82884812 18 39.9375 C18.01160156 40.96617188 18.02320312 41.99484375 18.03515625 43.0546875 C17.98718931 55.62202571 13.53059151 65.27478138 5.1875 74.6875 C4.341875 75.43 3.49625 76.1725 2.625 76.9375 C2.06425781 77.48921875 1.50351563 78.0409375 0.92578125 78.609375 C-9.7330023 88.72765228 -22.37999823 91.42576274 -36.66796875 91.18359375 C-49.95118828 90.30177833 -61.68469001 84.57690488 -70.6328125 74.79296875 C-72.25068481 72.85552093 -72.25068481 72.85552093 -74.375 71.9375 C-83.12161737 59.17084957 -84.96047011 44.26893419 -83.0234375 29.203125 C-82.58682077 27.05704275 -82.04840367 25.02045048 -81.375 22.9375 C-81.04822266 21.91269531 -81.04822266 21.91269531 -80.71484375 20.8671875 C-77.65643753 12.0763587 -73.62307142 6.67776094 -66.375 0.9375 C-65.70984375 0.39867187 -65.0446875 -0.14015625 -64.359375 -0.6953125 C-45.52329748 -15.45271182 -18.7545997 -15.06563189 0 0 Z M-52.375 8.9375 C-52.375 9.5975 -52.375 10.2575 -52.375 10.9375 C-53.15875 11.185 -53.9425 11.4325 -54.75 11.6875 C-57.69817108 13.09139099 -58.2774777 13.94425737 -59.375 16.9375 C-60.035 16.9375 -60.695 16.9375 -61.375 16.9375 C-67.93528792 27.97446238 -70.97832516 36.60872291 -67.7734375 49.32421875 C-65.21971536 57.5887371 -61.69878991 64.01288265 -54.375 68.9375 C-53.715 68.9375 -53.055 68.9375 -52.375 68.9375 C-52.375 69.5975 -52.375 70.2575 -52.375 70.9375 C-50.96021865 71.58745297 -49.54308513 72.23228722 -48.125 72.875 C-47.33609375 73.23464844 -46.5471875 73.59429687 -45.734375 73.96484375 C-36.35838081 77.83011288 -26.50338514 76.58368391 -17.32421875 72.8125 C-16.68097656 72.52375 -16.03773437 72.235 -15.375 71.9375 C-15.375 71.2775 -15.375 70.6175 -15.375 69.9375 C-16.01824219 70.1540625 -16.66148438 70.370625 -17.32421875 70.59375 C-27.57912103 73.75360577 -37.52834676 74.68499353 -47.375 69.9375 C-49.05123498 68.95362294 -50.72134594 67.95887457 -52.375 66.9375 C-53.035 66.9375 -53.695 66.9375 -54.375 66.9375 C-54.375 66.2775 -54.375 65.6175 -54.375 64.9375 C-55.73625 63.885625 -55.73625 63.885625 -57.125 62.8125 C-62.58859182 58.43387677 -64.48968542 52.71648024 -65.375 45.9375 C-65.88818782 38.07190979 -65.62027591 31.18726774 -62.375 23.9375 C-62.0759375 23.25042969 -61.776875 22.56335938 -61.46875 21.85546875 C-60.28444879 19.77871199 -59.15127807 18.73616233 -57.25 17.3125 C-56.30125 16.52875 -55.3525 15.745 -54.375 14.9375 C-54.375 14.2775 -54.375 13.6175 -54.375 12.9375 C-53.3540625 12.5353125 -53.3540625 12.5353125 -52.3125 12.125 C-50.11358058 11.23607513 -47.92808083 10.31382795 -45.75 9.375 C-37.17004327 5.72057399 -27.91675523 5.70990183 -19.1796875 9.0703125 C-17.01757604 10.10924918 -15.20899114 11.39694744 -13.375 12.9375 C-12.715 12.9375 -12.055 12.9375 -11.375 12.9375 C-11.375 13.5975 -11.375 14.2575 -11.375 14.9375 C-10.385 14.9375 -9.395 14.9375 -8.375 14.9375 C-8.09785156 15.50597656 -7.82070312 16.07445312 -7.53515625 16.66015625 C-5.97707831 19.71860553 -4.23135767 22.66033187 -2.49609375 25.62109375 C0.15951464 31.10811736 -0.25469935 36.78764076 -0.3125 42.75 C-0.31701172 43.63365234 -0.32152344 44.51730469 -0.32617188 45.42773438 C-0.33790134 47.59768559 -0.35583505 49.76760172 -0.375 51.9375 C0.285 51.9375 0.945 51.9375 1.625 51.9375 C4.37079087 42.4079905 4.69833733 33.35346438 0.04663086 24.39355469 C-1.36024842 21.86529037 -2.83841729 19.38881079 -4.375 16.9375 C-5.035 16.9375 -5.695 16.9375 -6.375 16.9375 C-7.035 15.6175 -7.695 14.2975 -8.375 12.9375 C-9.035 12.9375 -9.695 12.9375 -10.375 12.9375 C-10.375 12.2775 -10.375 11.6175 -10.375 10.9375 C-11.365 10.9375 -12.355 10.9375 -13.375 10.9375 C-13.375 10.2775 -13.375 9.6175 -13.375 8.9375 C-26.84208707 1.91555516 -38.90791293 1.91555516 -52.375 8.9375 Z M-15.375 46.9375 C-17.0192351 51.87020529 -15.56115592 54.47774193 -13.375 58.9375 C-12.715 58.9375 -12.055 58.9375 -11.375 58.9375 C-11.11460938 59.53433594 -10.85421875 60.13117188 -10.5859375 60.74609375 C-8.61992884 64.30393522 -5.50665536 66.42513828 -2.375 68.9375 C-1.653125 69.55625 -0.93125 70.175 -0.1875 70.8125 C1.83588411 72.28907524 1.83588411 72.28907524 5.625 71.9375 C6.615 69.9575 7.605 67.9775 8.625 65.9375 C6.68874902 64.95586578 4.75095461 63.97727546 2.8125 63 C1.19408203 62.18208984 1.19408203 62.18208984 -0.45703125 61.34765625 C-3.33711527 59.8789793 -3.33711527 59.8789793 -6.375 58.9375 C-7.05986725 57.61342331 -7.72370203 56.27840759 -8.375 54.9375 C-9.035 54.2775 -9.695 53.6175 -10.375 52.9375 C-12.30622728 51.00627272 -13.3090622 49.42468821 -14.375 46.9375 C-14.705 46.9375 -15.035 46.9375 -15.375 46.9375 Z " fill="#115495" transform="translate(86.375,20.0625)"/>
<path d="M0 0 C1.175625 0.01353516 1.175625 0.01353516 2.375 0.02734375 C4.29180055 0.05071937 6.20844191 0.08658347 8.125 0.125 C8.3671875 2.9453125 8.3671875 2.9453125 8.125 6.125 C6.4453125 7.8046875 6.4453125 7.8046875 4.25 9 C3.53070313 9.40992188 2.81140625 9.81984375 2.0703125 10.2421875 C0.125 11.125 0.125 11.125 -1.875 11.125 C-1.545 10.135 -1.215 9.145 -0.875 8.125 C-6.65659553 7.76365028 -10.59506588 8.66709963 -15.875 11.125 C-16.205 12.115 -16.535 13.105 -16.875 14.125 C-15.8128125 14.33253906 -14.750625 14.54007813 -13.65625 14.75390625 C0.47661552 17.74111046 0.47661552 17.74111046 5.90625 23.2421875 C7.83374015 26.21991267 7.68139598 28.71707463 7.125 32.125 C6.135 32.62 6.135 32.62 5.125 33.125 C4.465 31.805 3.805 30.485 3.125 29.125 C2.22007813 29.64900391 2.22007813 29.64900391 1.296875 30.18359375 C0.49765625 30.63863281 -0.3015625 31.09367187 -1.125 31.5625 C-2.30835938 32.24119141 -2.30835938 32.24119141 -3.515625 32.93359375 C-7.18257729 34.78528323 -10.33656104 35.25025972 -14.421875 35.22265625 C-15.26621094 35.21943359 -16.11054687 35.21621094 -16.98046875 35.21289062 C-18.28951172 35.20032227 -18.28951172 35.20032227 -19.625 35.1875 C-20.51316406 35.18298828 -21.40132812 35.17847656 -22.31640625 35.17382812 C-24.50267329 35.162074 -26.68880179 35.14564249 -28.875 35.125 C-29.46484375 33.265625 -29.46484375 33.265625 -29.875 31.125 C-28.4375 28.875 -28.4375 28.875 -26.875 27.125 C-26.04355469 27.36283203 -26.04355469 27.36283203 -25.1953125 27.60546875 C-16.98946705 29.44280452 -9.18878164 28.24840776 -1.875 24.125 C-1.545 23.465 -1.215 22.805 -0.875 22.125 C-6.76017455 20.7743042 -12.62445482 19.62719558 -18.58984375 18.6875 C-20.875 18.125 -20.875 18.125 -22.875 16.125 C-23.22880812 12.9655556 -22.85654612 10.14273221 -21.875 7.125 C-16.22500167 0.6368151 -8.0759746 -0.1779452 0 0 Z " fill="#E49A59" transform="translate(63.875,38.875)"/>
<path d="M0 0 C1.175625 0.01353516 1.175625 0.01353516 2.375 0.02734375 C4.29180055 0.05071937 6.20844191 0.08658347 8.125 0.125 C8.3671875 2.9453125 8.3671875 2.9453125 8.125 6.125 C6.4453125 7.8046875 6.4453125 7.8046875 4.25 9 C3.53070313 9.40992188 2.81140625 9.81984375 2.0703125 10.2421875 C0.125 11.125 0.125 11.125 -1.875 11.125 C-1.545 10.135 -1.215 9.145 -0.875 8.125 C-6.65659553 7.76365028 -10.59506588 8.66709963 -15.875 11.125 C-16.205 12.115 -16.535 13.105 -16.875 14.125 C-14.235 14.785 -11.595 15.445 -8.875 16.125 C-8.875 16.785 -8.875 17.445 -8.875 18.125 C-10.83303507 18.17889087 -12.79148909 18.21774217 -14.75 18.25 C-16.38582031 18.28480469 -16.38582031 18.28480469 -18.0546875 18.3203125 C-20.875 18.125 -20.875 18.125 -22.875 16.125 C-23.22880812 12.9655556 -22.85654612 10.14273221 -21.875 7.125 C-16.22500167 0.6368151 -8.0759746 -0.1779452 0 0 Z " fill="#EECE24" transform="translate(63.875,38.875)"/>
<path d="M0 0 C0.66 0.33 1.32 0.66 2 1 C2.625 4.0625 2.625 4.0625 3 7 C2.08476563 7.27714844 1.16953125 7.55429688 0.2265625 7.83984375 C-1.55621094 8.38318359 -1.55621094 8.38318359 -3.375 8.9375 C-4.55835937 9.29714844 -5.74171875 9.65679687 -6.9609375 10.02734375 C-9.87926818 10.87576274 -9.87926818 10.87576274 -12 12 C-14.84504568 12.12432618 -17.65487152 12.1851641 -20.5 12.1875 C-21.28503906 12.19974609 -22.07007813 12.21199219 -22.87890625 12.22460938 C-24.92063726 12.22986254 -26.96192251 12.1222018 -29 12 C-29.66 11.34 -30.32 10.68 -31 10 C-31 9.01 -31 8.02 -31 7 C-29.74445312 6.97421875 -28.48890625 6.9484375 -27.1953125 6.921875 C-12.46203627 6.88541159 -12.46203627 6.88541159 0 0 Z " fill="#01396D" transform="translate(66,67)"/>
<path d="M0 0 C0.33 0 0.66 0 1 0 C1.45717131 7.92430279 1.45717131 7.92430279 -0.0625 11.5 C-2.89879331 13.69583998 -5.48127106 13.80451506 -9 14 C-9.33 13.67 -9.66 13.34 -10 13 C-12.33297433 12.95907063 -14.66705225 12.95758277 -17 13 C-17.33 13.99 -17.66 14.98 -18 16 C-20.31 15.34 -22.62 14.68 -25 14 C-24.72265625 12.109375 -24.72265625 12.109375 -24 10 C-18.42266865 7.26025829 -14.15762212 6.67012739 -8 7 C-8.66 8.32 -9.32 9.64 -10 11 C-6.83022655 9.5527903 -3.81926253 8.05859358 -1 6 C0.21282289 2.84050318 0.21282289 2.84050318 0 0 Z " fill="#004482" transform="translate(72,39)"/>
<path d="M0 0 C-1.0625 1.9375 -1.0625 1.9375 -3 4 C-6.6875 4.75 -6.6875 4.75 -10 5 C-10 5.99 -10 6.98 -10 8 C-10.99 8.495 -10.99 8.495 -12 9 C-14.625 8.0625 -14.625 8.0625 -17 7 C-16.72265625 5.109375 -16.72265625 5.109375 -16 3 C-10.42266865 0.26025829 -6.15762212 -0.32987261 0 0 Z " fill="#1A445D" transform="translate(64,46)"/>
<path d="M0 0 C0.66 0.33 1.32 0.66 2 1 C2 1.99 2 2.98 2 4 C0.8553125 4.1546875 0.8553125 4.1546875 -0.3125 4.3125 C-3.22091043 5.05651197 -4.07329888 5.79805587 -6 8 C-8.50100574 9.25050287 -10.00343052 9.02993449 -12.7890625 8.87890625 C-13.73007812 8.83056641 -14.67109375 8.78222656 -15.640625 8.73242188 C-16.62546875 8.67634766 -17.6103125 8.62027344 -18.625 8.5625 C-19.61757813 8.51029297 -20.61015625 8.45808594 -21.6328125 8.40429688 C-24.08884568 8.27441051 -26.5444936 8.13943836 -29 8 C-29 7.67 -29 7.34 -29 7 C-27.88882813 6.97421875 -26.77765625 6.9484375 -25.6328125 6.921875 C-11.72302907 6.68444631 -11.72302907 6.68444631 0 0 Z " fill="#223E5C" transform="translate(66,67)"/>
<path d="M0 0 C7.11484687 0.3856646 13.35441866 1.39099399 20 4 C19.67 4.99 19.34 5.98 19 7 C17.63875 6.566875 17.63875 6.566875 16.25 6.125 C10.9331424 4.59023698 5.46046424 3.84283028 0 3 C0 2.01 0 1.02 0 0 Z " fill="#18466C" transform="translate(43,57)"/>
<path d="M0 0 C1.31471568 0.28151087 2.62675767 0.57553339 3.9375 0.875 C4.66839844 1.03742187 5.39929688 1.19984375 6.15234375 1.3671875 C8 2 8 2 9 4 C8.67 4.66 8.34 5.32 8 6 C7.43152344 5.86722656 6.86304688 5.73445313 6.27734375 5.59765625 C1.52848903 4.5115242 -3.16780324 3.61687618 -8 3 C-8 2.67 -8 2.34 -8 2 C-5.36 2 -2.72 2 0 2 C0 1.34 0 0.68 0 0 Z " fill="#D9A34B" transform="translate(55,55)"/>
<path d="M0 0 C1.2065625 0.0309375 1.2065625 0.0309375 2.4375 0.0625 C0.4375 3.0625 0.4375 3.0625 -1.296875 3.74609375 C-4.15833606 4.14571159 -6.923918 4.15639763 -9.8125 4.125 C-10.89015625 4.11597656 -11.9678125 4.10695313 -13.078125 4.09765625 C-13.89796875 4.08605469 -14.7178125 4.07445313 -15.5625 4.0625 C-15.8925 3.0725 -16.2225 2.0825 -16.5625 1.0625 C-15.5725 1.0625 -14.5825 1.0625 -13.5625 1.0625 C-13.5625 1.7225 -13.5625 2.3825 -13.5625 3.0625 C-11.91578588 2.75467504 -10.27014424 2.44110766 -8.625 2.125 C-7.70847656 1.95097656 -6.79195312 1.77695313 -5.84765625 1.59765625 C-3.05499644 0.94364874 -2.95318379 0.07202887 0 0 Z " fill="#2D6897" transform="translate(55.5625,63.9375)"/>
<path d="M0 0 C0.33 0 0.66 0 1 0 C1.05399736 1.45792884 1.09279177 2.91642712 1.125 4.375 C1.14820312 5.18710937 1.17140625 5.99921875 1.1953125 6.8359375 C1 9 1 9 -1 11 C-4.625 11.125 -4.625 11.125 -8 11 C-6.33820116 9.17202127 -5.20955589 8.08012431 -2.875 7.1875 C-0.63382023 6.07310132 -0.63382023 6.07310132 -0.25 2.875 C-0.1675 1.92625 -0.085 0.9775 0 0 Z " fill="#21485B" transform="translate(72,39)"/>
<path d="M0 0 C1.65 0 3.3 0 5 0 C2.69281189 4.28477792 0.67033927 7.72291137 -3 11 C-3 10.01 -3 9.02 -3 8 C-3.99 8 -4.98 8 -6 8 C-5.67 7.34 -5.34 6.68 -5 6 C-3.02 6.495 -3.02 6.495 -1 7 C0.10636395 4.60931266 0.10636395 4.60931266 1 2 C0.67 1.34 0.34 0.68 0 0 Z " fill="#ADBCCA" transform="translate(93,85)"/>
<path d="M0 0 C0.66 0.33 1.32 0.66 2 1 C0.59419724 2.65512248 -0.82506266 4.29882206 -2.25 5.9375 C-3.03890625 6.85402344 -3.8278125 7.77054688 -4.640625 8.71484375 C-6.91251033 10.91526249 -7.92319022 11.66832555 -11 12 C-11 11.34 -11 10.68 -11 10 C-9.35546875 8.37890625 -9.35546875 8.37890625 -7.1875 6.5625 C-4.68897282 4.45536324 -2.2757944 2.34758602 0 0 Z " fill="#537FA8" transform="translate(23,18)"/>
<path d="M0 0 C2.875 0.1875 2.875 0.1875 6 1 C7.1875 3.375 7.1875 3.375 8 6 C9.52007842 7.77277259 9.52007842 7.77277259 11 9 C10.67 9.66 10.34 10.32 10 11 C6.96586791 8.12555907 4.85429327 5.70858653 3 2 C2.01 1.67 1.02 1.34 0 1 C0 0.67 0 0.34 0 0 Z " fill="#6992B5" transform="translate(73,70)"/>
<path d="M0 0 C5.75 0.75 5.75 0.75 8 3 C4.71303767 3.79953138 3.28976808 4.09658936 0 3 C0 2.01 0 1.02 0 0 Z " fill="#063E6F" transform="translate(43,57)"/>
<path d="M0 0 C0 0.66 0 1.32 0 2 C0.99 2.33 1.98 2.66 3 3 C-1.75 6 -1.75 6 -4 6 C-3.67 5.01 -3.34 4.02 -3 3 C-3.99 2.34 -4.98 1.68 -6 1 C-3.92446352 0.4465236 -2.15634036 0 0 0 Z " fill="#B9A43A" transform="translate(66,44)"/>
<path d="M0 0 C3.99500618 1.3697164 6.80009492 3.25722422 10 6 C8.35 6.33 6.7 6.66 5 7 C3.35 4.69 1.7 2.38 0 0 Z " fill="#0D4883" transform="translate(79,74)"/>
<path d="M0 0 C1.4370809 -0.05422947 2.87475462 -0.09289723 4.3125 -0.125 C5.11300781 -0.14820313 5.91351563 -0.17140625 6.73828125 -0.1953125 C9 0 9 0 12 2 C10.02 2.66 8.04 3.32 6 4 C6 3.34 6 2.68 6 2 C3.03 1.505 3.03 1.505 0 1 C0 0.67 0 0.34 0 0 Z " fill="#0057A3" transform="translate(45,62)"/>
<path d="M0 0 C3.625 -0.1875 3.625 -0.1875 7 0 C5.68 0.33 4.36 0.66 3 1 C3 1.99 3 2.98 3 4 C1.35 3.67 -0.3 3.34 -2 3 C-1.34 2.01 -0.68 1.02 0 0 Z " fill="#025197" transform="translate(55,51)"/>
<path d="M0 0 C1.485 0.99 1.485 0.99 3 2 C3.1875 5.625 3.1875 5.625 3 9 C2.01 9.495 2.01 9.495 1 10 C0.67 6.7 0.34 3.4 0 0 Z " fill="#DCDEE0" transform="translate(68,62)"/>
<path d="M0 0 C0.99 0.33 1.98 0.66 3 1 C3 1.99 3 2.98 3 4 C-0.63 3.67 -4.26 3.34 -8 3 C-8 2.67 -8 2.34 -8 2 C-5.36 2 -2.72 2 0 2 C0 1.34 0 0.68 0 0 Z " fill="#D1A847" transform="translate(55,55)"/>
</svg>
